<?xml version="1.0" encoding="UTF-8"?>
<svg xmlns="http://www.w3.org/2000/svg" xmlns:xlink="http://www.w3.org/1999/xlink" width="25px" height="25px" viewBox="0 0 25 25" version="1.1">
<g id="surface1">
<path style=" stroke:none;fill-rule:nonzero;fill:rgb(0%,0%,0%);fill-opacity:1;" d="M 3.882812 2.175781 C 3.351562 2.328125 2.9375 2.707031 2.785156 3.1875 C 2.75 3.296875 2.746094 4.035156 2.742188 10.710938 L 2.734375 18.117188 L 2.796875 18.304688 C 2.945312 18.753906 3.277344 19.09375 3.699219 19.234375 C 3.941406 19.3125 4.039062 19.324219 4.652344 19.324219 C 4.972656 19.324219 5.363281 19.324219 5.511719 19.332031 L 5.789062 19.335938 L 5.71875 19.4375 C 5.386719 19.933594 5.210938 20.515625 5.089844 21.53125 C 5.015625 22.125 5.039062 22.476562 5.167969 22.695312 C 5.234375 22.816406 5.4375 22.933594 5.652344 22.972656 C 5.761719 22.992188 7.386719 22.996094 11.964844 22.992188 C 17.722656 22.984375 18.136719 22.980469 18.285156 22.941406 C 18.375 22.917969 18.488281 22.871094 18.539062 22.835938 C 18.707031 22.722656 18.851562 22.4375 18.886719 22.136719 L 18.902344 21.996094 L 19.066406 21.996094 C 19.285156 21.996094 19.75 21.9375 20.003906 21.878906 C 20.722656 21.707031 21.402344 21.292969 21.871094 20.738281 C 22.214844 20.332031 22.425781 19.960938 22.582031 19.484375 C 22.808594 18.804688 22.828125 18.132812 22.644531 17.425781 C 22.5625 17.117188 22.511719 16.988281 22.347656 16.675781 L 22.210938 16.417969 L 22.230469 15.710938 C 22.242188 15.320312 22.253906 12.351562 22.253906 9.117188 L 22.253906 3.234375 L 22.152344 3.023438 C 21.976562 2.660156 21.585938 2.304688 21.261719 2.210938 C 21.144531 2.175781 20.25 2.171875 13.074219 2.164062 C 8.644531 2.15625 4.792969 2.152344 4.519531 2.144531 C 4.113281 2.136719 3.996094 2.144531 3.882812 2.175781 Z M 7.753906 3.660156 C 7.890625 3.722656 7.980469 3.847656 8 4 C 8.023438 4.21875 7.9375 4.382812 7.75 4.46875 C 7.503906 4.585938 7.207031 4.445312 7.125 4.175781 C 7.085938 4.042969 7.128906 3.90625 7.246094 3.789062 C 7.417969 3.617188 7.570312 3.578125 7.753906 3.660156 Z M 6.335938 3.683594 C 6.507812 3.765625 6.59375 3.894531 6.59375 4.085938 C 6.589844 4.550781 5.972656 4.707031 5.761719 4.292969 C 5.699219 4.175781 5.699219 4.046875 5.757812 3.917969 C 5.816406 3.792969 5.882812 3.734375 6.027344 3.679688 C 6.175781 3.628906 6.21875 3.628906 6.335938 3.683594 Z M 21.707031 5.839844 C 21.710938 5.855469 21.710938 8.09375 21.703125 10.816406 C 21.703125 14.589844 21.695312 15.757812 21.671875 15.75 C 21.65625 15.746094 21.613281 15.710938 21.570312 15.675781 C 21.328125 15.449219 20.890625 15.171875 20.570312 15.039062 C 18.78125 14.304688 16.761719 15.027344 15.894531 16.710938 C 15.777344 16.941406 15.640625 17.320312 15.578125 17.59375 C 15.558594 17.664062 15.539062 17.722656 15.527344 17.722656 C 15.515625 17.722656 15.210938 17.617188 14.855469 17.488281 C 14.105469 17.214844 14.171875 17.269531 14.097656 16.851562 L 14.058594 16.601562 L 14.160156 16.484375 C 14.527344 16.0625 14.800781 15.613281 14.996094 15.09375 C 15.050781 14.949219 15.101562 14.820312 15.117188 14.800781 C 15.128906 14.785156 15.195312 14.753906 15.261719 14.734375 C 15.785156 14.558594 16.234375 13.851562 16.242188 13.195312 C 16.246094 12.863281 16.167969 12.644531 15.933594 12.339844 C 15.917969 12.320312 15.941406 12.128906 15.992188 11.8125 C 16.070312 11.363281 16.078125 11.269531 16.078125 10.851562 C 16.074219 10.476562 16.066406 10.332031 16.019531 10.09375 C 15.824219 9.054688 15.320312 8.347656 14.40625 7.820312 C 14 7.589844 13.53125 7.425781 12.917969 7.308594 C 12.613281 7.246094 12.535156 7.242188 12 7.238281 C 11.339844 7.238281 11.136719 7.265625 10.644531 7.414062 C 10.140625 7.566406 9.726562 7.796875 9.417969 8.097656 C 9.304688 8.207031 9.214844 8.265625 9.066406 8.328125 C 8.628906 8.519531 8.3125 8.820312 8.0625 9.277344 C 7.921875 9.535156 7.84375 9.792969 7.785156 10.179688 C 7.707031 10.695312 7.746094 11.167969 7.933594 12.082031 L 7.980469 12.3125 L 7.875 12.4375 C 7.820312 12.503906 7.746094 12.621094 7.714844 12.695312 C 7.660156 12.816406 7.652344 12.859375 7.65625 13.160156 C 7.65625 13.460938 7.664062 13.507812 7.734375 13.71875 C 7.882812 14.167969 8.125 14.476562 8.453125 14.632812 C 8.550781 14.679688 8.648438 14.722656 8.667969 14.730469 C 8.695312 14.734375 8.761719 14.871094 8.839844 15.066406 C 9.058594 15.632812 9.296875 16.054688 9.59375 16.417969 L 9.753906 16.613281 L 9.75 16.84375 C 9.75 17.136719 9.710938 17.261719 9.605469 17.292969 C 9.457031 17.339844 8.449219 17.699219 8.128906 17.820312 C 7.386719 18.09375 6.945312 18.3125 6.554688 18.589844 C 6.242188 18.816406 6.351562 18.796875 5.207031 18.796875 C 4.074219 18.796875 4.035156 18.792969 3.726562 18.640625 C 3.53125 18.542969 3.453125 18.472656 3.363281 18.300781 L 3.308594 18.199219 L 3.300781 12.035156 C 3.296875 8.644531 3.300781 5.855469 3.308594 5.839844 C 3.316406 5.816406 5.179688 5.808594 12.511719 5.808594 C 19.847656 5.808594 21.703125 5.816406 21.707031 5.839844 Z M 10.464844 10.796875 C 10.988281 11.15625 11.421875 11.332031 12.109375 11.453125 C 12.71875 11.558594 13.4375 11.53125 14.070312 11.378906 L 14.347656 11.3125 L 14.410156 11.558594 C 14.515625 11.941406 14.542969 12.085938 14.613281 12.585938 C 14.660156 12.917969 14.6875 13.054688 14.714844 13.078125 C 14.738281 13.09375 14.800781 13.113281 14.863281 13.125 C 15.023438 13.148438 15.09375 13.101562 15.117188 12.964844 C 15.160156 12.710938 15.367188 12.601562 15.570312 12.734375 C 15.855469 12.921875 15.707031 13.753906 15.320312 14.105469 C 15.171875 14.242188 15.058594 14.285156 14.863281 14.292969 C 14.800781 14.292969 14.742188 14.300781 14.734375 14.3125 C 14.722656 14.320312 14.652344 14.503906 14.574219 14.722656 C 14.386719 15.238281 14.320312 15.378906 14.109375 15.691406 C 13.882812 16.023438 13.773438 16.15625 13.550781 16.335938 C 13.160156 16.664062 12.699219 16.863281 12.230469 16.917969 C 11.527344 17 10.714844 16.707031 10.160156 16.175781 C 9.742188 15.777344 9.410156 15.203125 9.269531 14.636719 C 9.175781 14.273438 9.179688 14.273438 8.9375 14.246094 C 8.597656 14.207031 8.453125 14.09375 8.300781 13.761719 C 8.097656 13.316406 8.105469 12.886719 8.316406 12.722656 C 8.394531 12.660156 8.453125 12.660156 8.585938 12.71875 C 8.703125 12.769531 8.78125 12.875 8.804688 13.023438 C 8.832031 13.191406 8.851562 13.214844 8.96875 13.199219 C 9.089844 13.183594 9.179688 13.121094 9.234375 13.011719 C 9.265625 12.941406 9.273438 12.8125 9.289062 12.273438 C 9.292969 11.847656 9.308594 11.601562 9.328125 11.566406 C 9.34375 11.535156 9.4375 11.433594 9.535156 11.34375 C 9.722656 11.167969 9.976562 10.871094 10.082031 10.699219 C 10.113281 10.640625 10.15625 10.601562 10.171875 10.605469 C 10.1875 10.609375 10.316406 10.699219 10.464844 10.796875 Z M 19.75 15.328125 C 20.808594 15.542969 21.695312 16.300781 22.054688 17.308594 C 22.394531 18.246094 22.25 19.300781 21.671875 20.152344 C 21.515625 20.382812 21.15625 20.738281 20.917969 20.898438 C 20.101562 21.445312 19.136719 21.59375 18.195312 21.324219 C 17.597656 21.152344 17.027344 20.746094 16.621094 20.203125 C 16.363281 19.859375 16.160156 19.371094 16.066406 18.882812 C 16.019531 18.648438 16.011719 18.085938 16.054688 17.839844 C 16.179688 17.085938 16.621094 16.359375 17.21875 15.914062 C 17.644531 15.597656 18.195312 15.367188 18.71875 15.28125 C 18.925781 15.25 19.484375 15.277344 19.75 15.328125 Z M 13.644531 17.164062 C 13.6875 17.464844 13.78125 17.605469 14.023438 17.730469 C 14.078125 17.757812 14.128906 17.78125 14.132812 17.785156 C 14.15625 17.808594 13.9375 18.160156 13.8125 18.296875 C 13.351562 18.800781 12.796875 19.019531 11.96875 19.019531 C 10.863281 19.019531 10.050781 18.597656 9.800781 17.890625 L 9.769531 17.796875 L 9.855469 17.761719 C 10.09375 17.660156 10.191406 17.515625 10.230469 17.203125 C 10.246094 17.09375 10.261719 17 10.265625 16.996094 C 10.269531 16.996094 10.347656 17.035156 10.441406 17.089844 C 11.265625 17.574219 12.632812 17.558594 13.453125 17.054688 C 13.527344 17.007812 13.59375 16.96875 13.601562 16.96875 C 13.609375 16.96875 13.628906 17.054688 13.644531 17.164062 Z M 9.300781 18.054688 C 9.300781 18.066406 9.292969 18.0625 9.28125 18.042969 C 9.261719 18.015625 9.183594 18.035156 8.824219 18.160156 C 8.585938 18.242188 8.386719 18.304688 8.382812 18.300781 C 8.375 18.296875 8.574219 18.222656 8.820312 18.132812 C 9.25 17.976562 9.300781 17.972656 9.300781 18.054688 Z M 14.796875 18.023438 C 14.828125 18.042969 14.761719 18.03125 14.683594 18 C 14.667969 17.996094 14.636719 18.035156 14.613281 18.089844 C 14.585938 18.148438 14.558594 18.195312 14.546875 18.203125 C 14.535156 18.210938 14.550781 18.160156 14.585938 18.089844 C 14.652344 17.960938 14.683594 17.953125 14.796875 18.023438 Z M 15.191406 18.164062 L 15.480469 18.269531 L 15.472656 18.417969 L 15.46875 18.566406 L 15.460938 18.425781 L 15.453125 18.289062 L 15.214844 18.199219 C 14.964844 18.101562 14.808594 18.035156 14.867188 18.050781 C 14.886719 18.054688 15.035156 18.105469 15.191406 18.164062 Z M 9.621094 18.609375 C 9.675781 18.675781 9.710938 18.726562 9.699219 18.726562 C 9.652344 18.726562 9.300781 18.179688 9.300781 18.109375 C 9.300781 18.089844 9.351562 18.171875 9.414062 18.285156 C 9.476562 18.402344 9.566406 18.542969 9.621094 18.609375 Z M 14.5 18.289062 C 14.375 18.527344 14.078125 18.847656 13.800781 19.046875 C 13.6875 19.128906 13.589844 19.1875 13.585938 19.183594 C 13.578125 19.175781 13.648438 19.125 13.738281 19.066406 C 13.949219 18.929688 14.265625 18.613281 14.40625 18.402344 C 14.511719 18.238281 14.554688 18.191406 14.5 18.289062 Z M 8.324219 18.335938 C 8.253906 18.375 7.78125 18.554688 7.769531 18.542969 C 7.765625 18.539062 7.886719 18.484375 8.039062 18.425781 C 8.304688 18.316406 8.402344 18.285156 8.324219 18.335938 Z M 7.425781 18.722656 C 7.25 18.816406 6.996094 18.972656 6.867188 19.070312 C 6.621094 19.261719 6.316406 19.578125 6.164062 19.808594 C 6.113281 19.886719 6.066406 19.945312 6.0625 19.945312 C 6.050781 19.945312 6.066406 19.917969 6.183594 19.742188 C 6.3125 19.554688 6.734375 19.128906 6.945312 18.980469 C 7.113281 18.863281 7.679688 18.554688 7.726562 18.558594 C 7.742188 18.558594 7.605469 18.632812 7.425781 18.722656 Z M 15.523438 18.894531 C 15.519531 18.964844 15.519531 18.957031 15.503906 18.859375 C 15.492188 18.792969 15.484375 18.699219 15.484375 18.652344 C 15.484375 18.582031 15.488281 18.589844 15.503906 18.6875 C 15.515625 18.753906 15.523438 18.851562 15.523438 18.894531 Z M 10.207031 19.136719 C 10.230469 19.164062 10.019531 19.03125 9.964844 18.980469 C 9.777344 18.828125 9.78125 18.816406 9.972656 18.960938 C 10.09375 19.046875 10.199219 19.128906 10.207031 19.136719 Z M 15.570312 19.175781 C 15.570312 19.214844 15.566406 19.214844 15.550781 19.164062 C 15.542969 19.128906 15.53125 19.078125 15.53125 19.042969 C 15.53125 18.988281 15.535156 18.988281 15.550781 19.054688 C 15.5625 19.09375 15.570312 19.148438 15.570312 19.175781 Z M 10.609375 19.332031 C 10.597656 19.339844 10.230469 19.171875 10.230469 19.15625 C 10.230469 19.148438 10.316406 19.183594 10.425781 19.234375 C 10.53125 19.28125 10.617188 19.324219 10.609375 19.332031 Z M 13.550781 19.203125 C 13.550781 19.207031 13.519531 19.226562 13.476562 19.25 C 13.382812 19.296875 13.378906 19.277344 13.472656 19.226562 C 13.546875 19.1875 13.550781 19.183594 13.550781 19.203125 Z M 13.355469 19.3125 C 13.335938 19.324219 13.308594 19.335938 13.292969 19.335938 C 13.28125 19.335938 13.285156 19.324219 13.304688 19.3125 C 13.324219 19.300781 13.355469 19.285156 13.367188 19.285156 C 13.382812 19.285156 13.375 19.300781 13.355469 19.3125 Z M 10.824219 19.382812 C 10.910156 19.410156 11.046875 19.449219 11.132812 19.46875 C 11.222656 19.488281 11.265625 19.503906 11.230469 19.503906 C 11.164062 19.507812 10.730469 19.394531 10.667969 19.359375 C 10.609375 19.324219 10.660156 19.332031 10.824219 19.382812 Z M 13.171875 19.382812 C 13.117188 19.410156 13.042969 19.4375 13 19.441406 C 12.960938 19.453125 12.992188 19.433594 13.074219 19.398438 C 13.246094 19.332031 13.3125 19.320312 13.171875 19.382812 Z M 15.660156 19.46875 C 15.667969 19.515625 15.667969 19.53125 15.652344 19.507812 C 15.640625 19.488281 15.625 19.4375 15.617188 19.398438 C 15.605469 19.351562 15.609375 19.335938 15.621094 19.359375 C 15.632812 19.378906 15.648438 19.429688 15.660156 19.46875 Z M 12.878906 19.480469 C 12.851562 19.496094 12.8125 19.503906 12.792969 19.503906 C 12.769531 19.503906 12.773438 19.496094 12.804688 19.480469 C 12.832031 19.46875 12.871094 19.460938 12.890625 19.460938 C 12.914062 19.460938 12.910156 19.46875 12.878906 19.480469 Z M 11.445312 19.523438 C 11.421875 19.527344 11.378906 19.527344 11.347656 19.523438 C 11.316406 19.519531 11.335938 19.515625 11.390625 19.515625 C 11.441406 19.511719 11.46875 19.515625 11.445312 19.523438 Z M 12.714844 19.523438 C 12.691406 19.527344 12.648438 19.527344 12.617188 19.523438 C 12.585938 19.519531 12.605469 19.515625 12.660156 19.515625 C 12.710938 19.511719 12.738281 19.515625 12.714844 19.523438 Z M 11.761719 19.546875 C 11.710938 19.554688 11.632812 19.554688 11.589844 19.546875 C 11.546875 19.542969 11.589844 19.539062 11.683594 19.539062 C 11.777344 19.539062 11.8125 19.542969 11.761719 19.546875 Z M 12.046875 19.550781 C 12.050781 19.558594 12.015625 19.566406 11.960938 19.558594 C 11.910156 19.554688 11.867188 19.546875 11.867188 19.539062 C 11.867188 19.523438 12.035156 19.53125 12.046875 19.550781 Z M 12.433594 19.546875 C 12.402344 19.554688 12.347656 19.554688 12.3125 19.546875 C 12.273438 19.542969 12.300781 19.539062 12.367188 19.539062 C 12.433594 19.539062 12.464844 19.542969 12.433594 19.546875 Z M 15.882812 19.984375 C 16.15625 20.550781 16.59375 21.054688 17.101562 21.382812 C 17.445312 21.605469 17.457031 21.613281 17.347656 21.558594 C 17.21875 21.5 16.945312 21.3125 16.761719 21.164062 C 16.585938 21.023438 16.378906 20.796875 16.179688 20.535156 C 16.046875 20.359375 15.71875 19.738281 15.6875 19.605469 L 15.675781 19.542969 L 15.699219 19.605469 C 15.714844 19.636719 15.796875 19.808594 15.882812 19.984375 Z M 6.027344 20.035156 C 5.992188 20.117188 5.933594 20.210938 5.933594 20.183594 C 5.933594 20.15625 6.027344 19.96875 6.042969 19.96875 C 6.050781 19.96875 6.039062 20 6.027344 20.035156 Z M 5.898438 20.328125 C 5.878906 20.378906 5.863281 20.410156 5.863281 20.394531 C 5.859375 20.359375 5.910156 20.210938 5.921875 20.222656 C 5.929688 20.226562 5.917969 20.273438 5.898438 20.328125 Z M 5.796875 20.6875 C 5.765625 20.820312 5.738281 20.957031 5.734375 20.992188 C 5.734375 21.027344 5.726562 21.042969 5.71875 21.023438 C 5.707031 20.984375 5.75 20.742188 5.804688 20.5625 C 5.867188 20.359375 5.863281 20.429688 5.796875 20.6875 Z M 5.707031 21.183594 C 5.699219 21.207031 5.695312 21.1875 5.695312 21.140625 C 5.695312 21.097656 5.699219 21.078125 5.707031 21.097656 C 5.710938 21.121094 5.710938 21.160156 5.707031 21.183594 Z M 16.292969 21.085938 C 16.273438 21.089844 16.246094 21.089844 16.230469 21.085938 C 16.214844 21.078125 16.226562 21.074219 16.261719 21.074219 C 16.292969 21.074219 16.304688 21.078125 16.292969 21.085938 Z M 7.742188 21.125 C 7.84375 21.199219 7.863281 21.316406 7.863281 21.878906 L 7.863281 22.410156 L 10.324219 22.417969 L 12.78125 22.425781 L 10.308594 22.429688 L 7.835938 22.4375 L 7.835938 21.890625 C 7.835938 21.179688 7.808594 21.101562 7.554688 21.121094 C 7.496094 21.125 7.457031 21.121094 7.464844 21.109375 C 7.480469 21.082031 7.699219 21.09375 7.742188 21.125 Z M 16.15625 21.121094 C 16.136719 21.140625 16.109375 21.175781 16.09375 21.203125 C 16.078125 21.234375 16.066406 21.238281 16.066406 21.21875 C 16.066406 21.175781 16.136719 21.09375 16.167969 21.09375 C 16.183594 21.09375 16.179688 21.109375 16.15625 21.121094 Z M 16.441406 21.15625 L 16.515625 21.21875 L 16.429688 21.164062 C 16.320312 21.09375 16.320312 21.09375 16.347656 21.09375 C 16.359375 21.09375 16.402344 21.121094 16.441406 21.15625 Z M 7.398438 21.191406 C 7.382812 21.21875 7.367188 21.238281 7.359375 21.238281 C 7.355469 21.238281 7.359375 21.21875 7.375 21.191406 C 7.386719 21.164062 7.40625 21.140625 7.414062 21.140625 C 7.417969 21.140625 7.414062 21.164062 7.398438 21.191406 Z M 16.566406 21.355469 C 16.59375 21.480469 16.59375 22.460938 16.574219 22.460938 C 16.558594 22.460938 16.554688 22.214844 16.554688 21.914062 C 16.554688 21.609375 16.542969 21.335938 16.527344 21.300781 C 16.515625 21.261719 16.515625 21.242188 16.527344 21.253906 C 16.539062 21.257812 16.558594 21.304688 16.566406 21.355469 Z M 5.679688 21.355469 C 5.675781 21.378906 5.667969 21.363281 5.667969 21.324219 C 5.667969 21.285156 5.675781 21.265625 5.679688 21.28125 C 5.6875 21.296875 5.6875 21.332031 5.679688 21.355469 Z M 7.324219 21.460938 C 7.308594 21.648438 7.292969 21.667969 7.296875 21.496094 C 7.300781 21.394531 7.324219 21.253906 7.335938 21.269531 C 7.339844 21.273438 7.335938 21.359375 7.324219 21.460938 Z M 16.058594 21.585938 C 16.058594 21.847656 16.050781 21.878906 16.042969 21.742188 C 16.027344 21.566406 16.035156 21.265625 16.054688 21.265625 C 16.058594 21.265625 16.0625 21.410156 16.058594 21.585938 Z M 5.640625 21.671875 C 5.625 21.792969 5.601562 21.976562 5.589844 22.082031 L 5.570312 22.277344 L 5.582031 22.046875 C 5.59375 21.800781 5.640625 21.429688 5.660156 21.449219 C 5.667969 21.453125 5.65625 21.554688 5.640625 21.671875 Z M 17.746094 21.726562 C 17.855469 21.773438 17.941406 21.8125 17.933594 21.820312 C 17.921875 21.832031 17.582031 21.691406 17.53125 21.652344 C 17.480469 21.617188 17.511719 21.628906 17.746094 21.726562 Z M 7.320312 21.714844 C 7.3125 21.722656 7.296875 21.710938 7.289062 21.6875 C 7.277344 21.652344 7.277344 21.648438 7.300781 21.671875 C 7.320312 21.6875 7.328125 21.707031 7.320312 21.714844 Z M 7.324219 21.777344 C 7.324219 21.789062 7.316406 21.800781 7.300781 21.800781 C 7.289062 21.800781 7.277344 21.789062 7.277344 21.777344 C 7.277344 21.761719 7.289062 21.753906 7.300781 21.753906 C 7.316406 21.753906 7.324219 21.761719 7.324219 21.777344 Z M 7.292969 21.917969 C 7.285156 21.941406 7.28125 21.925781 7.28125 21.886719 C 7.28125 21.84375 7.285156 21.828125 7.292969 21.84375 C 7.296875 21.859375 7.296875 21.894531 7.292969 21.917969 Z M 18.222656 21.882812 C 18.277344 21.898438 18.324219 21.929688 18.332031 21.949219 C 18.335938 21.972656 18.332031 21.976562 18.316406 21.957031 C 18.308594 21.941406 18.226562 21.910156 18.140625 21.886719 C 18.050781 21.863281 17.976562 21.839844 17.96875 21.832031 C 17.953125 21.820312 18.082031 21.84375 18.222656 21.882812 Z M 16.058594 22.234375 C 16.050781 22.285156 16.046875 22.25 16.046875 22.15625 C 16.046875 22.058594 16.050781 22.019531 16.058594 22.0625 C 16.0625 22.105469 16.0625 22.183594 16.058594 22.234375 Z M 18.332031 22.234375 C 18.300781 22.335938 18.246094 22.410156 18.203125 22.410156 C 18.1875 22.410156 18.199219 22.390625 18.230469 22.367188 C 18.265625 22.34375 18.296875 22.273438 18.316406 22.195312 C 18.332031 22.125 18.351562 22.082031 18.355469 22.105469 C 18.359375 22.125 18.351562 22.183594 18.332031 22.234375 Z M 7.320312 22.3125 L 7.328125 22.4375 L 7.160156 22.429688 L 6.996094 22.429688 L 7.140625 22.414062 L 7.289062 22.398438 L 7.289062 22.3125 C 7.296875 22.148438 7.308594 22.148438 7.320312 22.3125 Z M 5.695312 22.4375 C 5.746094 22.441406 5.746094 22.445312 5.703125 22.453125 C 5.652344 22.46875 5.589844 22.402344 5.59375 22.339844 C 5.59375 22.320312 5.605469 22.332031 5.621094 22.367188 C 5.636719 22.410156 5.660156 22.4375 5.695312 22.4375 Z M 16.066406 22.386719 C 16.066406 22.429688 16.050781 22.4375 15.960938 22.433594 L 15.855469 22.429688 L 15.949219 22.40625 C 16 22.390625 16.039062 22.371094 16.039062 22.359375 C 16.039062 22.347656 16.046875 22.339844 16.050781 22.339844 C 16.058594 22.339844 16.066406 22.359375 16.066406 22.386719 Z M 6.96875 22.425781 C 6.917969 22.445312 6.507812 22.453125 6.554688 22.433594 C 6.582031 22.425781 6.691406 22.414062 6.800781 22.414062 C 6.90625 22.417969 6.984375 22.417969 6.96875 22.425781 Z M 15.070312 22.429688 C 14.652344 22.433594 13.960938 22.433594 13.546875 22.429688 C 13.125 22.425781 13.46875 22.425781 14.308594 22.425781 C 15.148438 22.425781 15.488281 22.425781 15.070312 22.429688 Z M 18.136719 22.429688 C 18.109375 22.433594 18.070312 22.433594 18.050781 22.429688 C 18.023438 22.421875 18.042969 22.417969 18.089844 22.417969 C 18.136719 22.417969 18.15625 22.421875 18.136719 22.429688 Z M 6.332031 22.453125 C 6.234375 22.457031 6.070312 22.457031 5.964844 22.453125 C 5.859375 22.449219 5.941406 22.445312 6.140625 22.445312 C 6.34375 22.445312 6.429688 22.449219 6.332031 22.453125 Z M 17.109375 22.453125 C 17.015625 22.457031 16.871094 22.457031 16.78125 22.453125 C 16.6875 22.449219 16.761719 22.445312 16.945312 22.445312 C 17.125 22.445312 17.199219 22.449219 17.109375 22.453125 Z M 17.464844 22.453125 C 17.433594 22.457031 17.382812 22.457031 17.355469 22.453125 C 17.320312 22.449219 17.347656 22.445312 17.40625 22.445312 C 17.46875 22.445312 17.492188 22.449219 17.464844 22.453125 Z M 17.757812 22.453125 C 17.710938 22.457031 17.640625 22.457031 17.597656 22.453125 C 17.554688 22.449219 17.589844 22.445312 17.675781 22.445312 C 17.765625 22.445312 17.796875 22.449219 17.757812 22.453125 Z M 17.757812 22.453125 "/>
<path style=" stroke:none;fill-rule:nonzero;fill:rgb(0%,0%,0%);fill-opacity:1;" d="M 20.617188 16.980469 C 20.574219 17 20.421875 17.148438 20.273438 17.304688 C 20.128906 17.460938 19.859375 17.742188 19.679688 17.933594 C 19.496094 18.121094 19.195312 18.433594 19.011719 18.625 L 18.675781 18.972656 L 18.558594 18.871094 C 18.496094 18.8125 18.335938 18.660156 18.199219 18.53125 C 18.0625 18.402344 17.921875 18.269531 17.882812 18.230469 C 17.804688 18.160156 17.628906 18.074219 17.628906 18.113281 C 17.628906 18.125 17.660156 18.140625 17.699219 18.148438 C 17.746094 18.15625 17.847656 18.234375 17.976562 18.355469 C 18.40625 18.765625 18.65625 18.992188 18.675781 18.992188 C 18.6875 18.992188 19.074219 18.597656 19.535156 18.109375 C 19.996094 17.625 20.425781 17.171875 20.492188 17.109375 C 20.679688 16.929688 20.839844 16.925781 20.996094 17.105469 C 21.082031 17.203125 21.109375 17.289062 21.078125 17.382812 C 21.058594 17.445312 20.578125 17.972656 19.820312 18.761719 C 19.691406 18.894531 19.421875 19.183594 19.214844 19.402344 C 19.011719 19.617188 18.828125 19.800781 18.804688 19.808594 C 18.785156 19.816406 18.726562 19.824219 18.675781 19.824219 C 18.585938 19.824219 18.554688 19.800781 18.207031 19.476562 C 17.242188 18.582031 17.226562 18.5625 17.335938 18.34375 C 17.378906 18.253906 17.421875 18.210938 17.503906 18.167969 C 17.574219 18.132812 17.59375 18.113281 17.5625 18.113281 C 17.480469 18.113281 17.316406 18.277344 17.28125 18.386719 C 17.234375 18.578125 17.28125 18.644531 17.816406 19.144531 C 18.082031 19.390625 18.351562 19.636719 18.414062 19.699219 C 18.476562 19.761719 18.542969 19.816406 18.5625 19.828125 C 18.625 19.863281 18.738281 19.867188 18.800781 19.832031 C 18.855469 19.808594 19.484375 19.160156 20.398438 18.1875 C 20.480469 18.101562 20.667969 17.898438 20.816406 17.742188 C 21.027344 17.523438 21.097656 17.4375 21.109375 17.371094 C 21.128906 17.261719 21.085938 17.152344 20.988281 17.058594 C 20.859375 16.9375 20.75 16.917969 20.617188 16.980469 Z M 20.617188 16.980469 "/>
</g>
</svg>
